<svg width="160" height="160" viewBox="0 0 160 160" fill="none" xmlns="http://www.w3.org/2000/svg">
<g clip-path="url(#clip0)">
<path d="M81.064 28.7566C89.8878 28.515 98.3993 30.0774 105.678 33.2736C112.718 36.3649 118.294 40.8314 121.807 46.1916C122.411 47.1138 123.489 47.5367 124.509 47.3501C124.847 47.2881 125.179 47.1588 125.485 46.9582C126.713 46.1535 127.055 44.5075 126.251 43.2802C122.173 37.0572 115.798 31.9152 107.814 28.4091C99.8219 24.8994 90.5216 23.1829 80.918 23.4459C79.4538 23.486 78.2955 24.7075 78.3362 26.1747C78.3755 27.64 79.5966 28.7963 81.064 28.7566V28.7566Z" fill="#A6C1CA"/>
<path d="M33.8784 57.6497C34.4734 58.5661 35.648 59.0421 36.7124 58.7945C37.7635 58.5494 38.5999 57.621 38.7373 56.5505C38.8765 55.467 38.2924 54.3387 37.3157 53.8435C36.3054 53.3322 34.9976 53.5462 34.2049 54.3558C33.3614 55.217 33.2303 56.6386 33.8784 57.6497Z" fill="#A6C1CA"/>
<path d="M44.6863 45.6159C45.2874 46.5428 46.4817 47.0225 47.556 46.7542C48.5916 46.4939 49.4082 45.5723 49.5468 44.5143C49.6884 43.4378 49.1043 42.3211 48.1413 41.8201C47.1238 41.2922 45.7927 41.5063 44.9995 42.3361C44.1743 43.1991 44.0342 44.6119 44.6863 45.6159Z" fill="#A6C1CA"/>
<path d="M59.9906 52.8706C60.5855 53.787 61.7612 54.2627 62.8256 54.0152C63.8767 53.77 64.7151 52.8413 64.8525 51.7708C64.9916 50.6863 64.4054 49.5584 63.4279 49.0643C62.4176 48.553 61.1108 48.7669 60.3171 49.5767C59.4747 50.4376 59.3425 51.8595 59.9906 52.8706Z" fill="#A6C1CA"/>
<path d="M149.947 84.4636C148.894 78.7102 144.299 74.4837 138.827 73.6129L137.63 67.0747C138.401 66.6182 139.123 66.0704 139.78 65.4313C142.389 62.8873 143.518 59.4192 142.876 55.9132C142.475 53.7209 141.417 51.77 139.839 50.2552C140.199 48.6291 140.084 46.9181 139.473 45.3233C135.045 33.7667 125.357 24.2194 112.193 18.438C99.0813 12.6808 83.3517 11.0671 67.9012 13.8949C52.4507 16.7228 38.3122 23.803 28.0898 33.831C17.8262 43.8992 12.1477 56.26 12.1005 68.6355C12.0917 70.7774 12.8767 72.813 14.2807 74.3861C13.7403 76.0272 13.6209 77.7663 13.9403 79.5116C14.582 83.0176 16.8665 85.8631 20.2084 87.3168C20.6073 87.4906 21.0148 87.6365 21.4251 87.7629L22.7245 94.8625C17.9151 97.6151 15.1157 103.195 16.1687 108.948L16.2658 109.479C16.9633 113.29 19.2163 116.43 22.2477 118.371C21.7584 119.963 21.6532 121.653 21.9579 123.318C22.4366 125.934 23.8308 128.179 25.8947 129.756L27.6204 139.185C29.4639 149.258 39.1587 155.954 49.2325 154.11L135.022 138.408C145.095 136.565 151.79 126.869 149.947 116.796L148.438 108.553C150.585 106.089 151.48 102.92 150.894 99.7183C150.526 97.7106 149.613 95.9137 148.256 94.4638C149.943 91.7332 150.666 88.3941 150.044 84.9943L149.947 84.4636ZM144.721 85.42L144.818 85.9508C145.312 88.6483 144.404 91.2828 142.615 93.107C141.45 94.295 139.926 95.1054 138.289 95.4051L97.7725 102.821L111.412 83.257L135.265 78.8912C139.673 78.0846 143.914 81.0139 144.721 85.42ZM54.308 93.7084L54.7984 94.048L57.969 96.2366L53.3856 102.875L43.086 95.7623L54.308 93.7084ZM82.1406 106.473L63.1766 93.3774C63.1764 93.3764 63.1752 93.3756 63.174 93.3747L61.6985 92.3558L103.978 84.6177L89.6762 105.083C89.6753 105.084 89.6745 105.085 89.6738 105.088C89.6722 105.09 89.6695 105.093 89.6678 105.095L86.5926 109.548L82.1406 106.473ZM17.412 68.6549C17.4543 57.7107 22.5678 46.6895 31.81 37.6225C41.2831 28.3298 54.44 21.7594 68.8576 19.1206C83.2752 16.4819 97.9064 17.9664 110.057 23.3015C121.911 28.5073 130.596 37.003 134.513 47.2227C135.238 49.1183 134.014 51.2802 132.021 51.6448L21.308 71.908C19.3126 72.2732 17.4048 70.6847 17.412 68.6549ZM19.1035 77.1247C20.1429 77.3226 21.2244 77.3241 22.2644 77.1337L132.978 56.8705C134.42 56.6065 135.802 55.9675 136.93 55.0301C137.286 55.5893 137.531 56.2165 137.65 56.8687C137.968 58.6048 137.393 60.3387 136.072 61.6259C134.721 62.9427 132.805 63.5497 130.941 63.3149C130.02 63.1986 129.133 62.9938 128.2 62.9663C127.19 62.936 126.179 63.0261 125.186 63.2078C120.519 64.0621 118.338 66.2882 116.586 68.0761C115.048 69.6465 113.835 70.8866 110.826 71.4373C107.817 71.988 106.242 71.2583 104.249 70.3352C101.977 69.2817 99.1497 67.9731 94.4813 68.8276C89.8139 69.6818 87.6338 71.9078 85.8821 73.6967C84.3445 75.2661 83.1305 76.5062 80.1217 77.0569C77.1128 77.6076 75.5373 76.878 73.5433 75.954C71.2716 74.9014 68.4446 73.5929 63.7772 74.4472C59.1098 75.3014 56.9287 77.5276 55.1769 79.3155C53.6394 80.8859 52.4245 82.1262 49.4166 82.6767C46.4068 83.2275 44.8323 82.4978 42.8373 81.5739C40.5656 80.5214 37.7386 79.2129 33.0701 80.0673C31.2238 80.4052 29.6165 81.0232 28.1554 81.9563C26.4301 83.0589 24.2126 83.2654 22.3283 82.4447C20.6367 81.709 19.4848 80.2911 19.167 78.555C19.078 78.0745 19.0578 77.5951 19.1035 77.1247V77.1247ZM27.3983 87.9576C28.7569 87.6404 29.9796 87.059 31.1665 86.3397C32.3503 85.6209 33.7208 85.2709 35.0912 85.1446C37.4354 84.9275 38.86 85.5877 40.6047 86.3949C42.8764 87.4475 45.7036 88.757 50.372 87.9026C55.0394 87.0483 57.2195 84.8223 58.9712 83.0334C60.5088 81.464 61.7238 80.2237 64.7326 79.673C67.7415 79.1224 69.316 79.8521 71.3098 80.7751C73.5815 81.8277 76.4097 83.137 81.0771 82.2828C85.7445 81.4285 87.9246 79.2026 89.6762 77.4136C91.2139 75.8443 92.4288 74.604 95.4367 74.0535C98.4455 73.5028 100.021 74.2323 102.015 75.1554C104.287 76.2079 107.114 77.5174 111.781 76.6632C116.449 75.8089 118.629 73.583 120.38 71.794C121.919 70.2245 123.133 68.9844 126.142 68.4337C127.209 68.2383 128.29 68.224 129.357 68.4328C130.397 68.6369 131.458 68.7265 132.518 68.658L133.463 73.8214L109.381 78.229C109.38 78.2292 109.38 78.2292 109.379 78.2294L109.378 78.2296L54.4418 88.2842C54.4398 88.2846 54.4367 88.2852 54.4347 88.2856C54.4316 88.2861 54.4286 88.2867 54.4265 88.287L27.8132 93.1579L26.8815 88.067C27.0548 88.0342 27.2263 87.9975 27.3983 87.9576V87.9576ZM21.3944 107.992C20.588 103.586 23.5172 99.3439 27.9234 98.5375L35.6966 97.1148L52.5527 108.756C53.1323 109.156 53.847 109.309 54.54 109.183C55.233 109.056 55.8472 108.66 56.2474 108.08L62.3412 99.256L73.8445 107.2L30.9458 115.051C29.5649 115.304 28.1253 115.19 26.8017 114.725C24.1389 113.789 22.0351 111.493 21.4915 108.522L21.3944 107.992ZM27.2544 120.31C28.7879 120.569 30.3723 120.557 31.9023 120.277L80.0266 111.469L85.7596 115.428C86.9455 116.248 88.6248 115.943 89.4476 114.762L93.4573 109.011L139.244 100.631C140.718 100.361 142.144 99.8418 143.448 99.1052C143.722 98.9508 144.001 98.7942 144.25 98.6031C144.33 98.5409 144.44 98.4153 144.546 98.4032C144.693 98.3869 144.765 98.5647 144.838 98.6715C145.235 99.2434 145.511 99.8985 145.649 100.581C146.144 103.038 144.746 105.426 142.551 106.521C141.294 107.15 139.84 107.328 138.465 107.039C136.771 106.684 135.049 106.675 133.203 107.013C128.535 107.867 126.355 110.093 124.604 111.882C123.065 113.453 121.851 114.693 118.842 115.244C115.834 115.794 114.259 115.064 112.265 114.14C109.993 113.088 107.166 111.778 102.499 112.633C97.8312 113.487 95.6511 115.713 93.8985 117.502C92.361 119.072 91.1471 120.312 88.1382 120.863C85.1294 121.414 83.5549 120.684 81.5599 119.76C79.2882 118.708 76.461 117.398 71.7936 118.252C67.1262 119.107 64.9461 121.333 63.1934 123.122C61.656 124.692 60.442 125.932 57.4332 126.483C54.4233 127.034 52.8486 126.303 50.8548 125.38C48.5821 124.328 45.7549 123.018 41.0865 123.873C39.2402 124.21 37.6328 124.828 36.173 125.762C34.5949 126.771 32.5899 127.043 30.8144 126.431C29.244 125.89 27.9321 124.71 27.3844 123.124C27.2215 122.655 27.127 122.162 27.1026 121.665C27.0952 121.521 27.1172 120.287 27.2544 120.31V120.31ZM144.721 117.753C146.037 124.944 141.257 131.867 134.065 133.183L48.276 148.884C41.0846 150.2 34.1623 145.42 32.8461 138.229L31.7118 132.031C33.9685 132.247 36.2765 131.78 38.3488 130.642C38.3909 130.619 38.4331 130.595 38.4743 130.573C38.6625 130.466 38.8503 130.357 39.0334 130.239C39.9021 129.683 40.8867 129.311 42.0431 129.099C45.053 128.548 46.6273 129.277 48.6213 130.201C50.894 131.253 53.7212 132.563 58.3896 131.709C63.057 130.854 65.2371 128.628 66.9888 126.839C68.5262 125.269 69.7414 124.03 72.7492 123.479C75.758 122.929 77.3333 123.657 79.3273 124.581C81.599 125.634 84.4262 126.943 89.0947 126.089C93.7621 125.235 95.9422 123.009 97.6938 121.22C99.2313 119.649 100.446 118.41 103.454 117.859C106.463 117.309 108.038 118.037 110.031 118.962C112.303 120.014 115.131 121.323 119.799 120.469C124.466 119.615 126.646 117.389 128.398 115.6C129.935 114.03 131.15 112.79 134.159 112.24C134.938 112.097 135.735 112.041 136.525 112.113C137.277 112.181 138.01 112.371 138.763 112.443C140.396 112.596 142.09 112.382 143.636 111.831L144.72 117.753L144.721 117.753Z" fill="#A6C1CA"/>
<path d="M64.9042 41.9155C65.4992 42.8319 66.6757 43.3128 67.7404 43.061C68.7909 42.8128 69.6269 41.8877 69.7655 40.818C69.9066 39.7331 69.3198 38.6074 68.3437 38.1099C67.335 37.5952 66.0249 37.8086 65.2337 38.6211C64.3944 39.4815 64.2479 40.9059 64.9042 41.9155Z" fill="#A6C1CA"/>
<path d="M78.7985 51.2753C79.3937 52.1927 80.5681 52.6676 81.6325 52.4201C82.6846 52.1748 83.5177 51.2459 83.6586 50.1769C83.8009 49.0929 83.2125 47.9643 82.2358 47.469C81.2254 46.9567 79.9179 47.1728 79.125 47.9814C78.2826 48.8423 78.1504 50.2642 78.7985 51.2753V51.2753Z" fill="#A6C1CA"/>
<path d="M67.8337 29.0357C68.8769 29.485 70.1731 29.1845 70.908 28.318C71.6264 27.4713 71.7399 26.1837 71.1628 25.2323C70.6014 24.3088 69.4656 23.7856 68.4 23.9859C67.3457 24.1852 66.4693 25.0619 66.2765 26.1182C66.0616 27.301 66.7322 28.5559 67.8337 29.0357V29.0357Z" fill="#A6C1CA"/>
</g>
<defs>
<clipPath id="clip0">
<rect width="136" height="136" fill="white" transform="translate(0.868774 25.3534) rotate(-10.3717)"/>
</clipPath>
</defs>
</svg>
