<svg width="212" height="212" viewBox="0 0 212 212" fill="none" xmlns="http://www.w3.org/2000/svg">
<g clip-path="url(#clip0)">
<path d="M40.8482 75.8996C39.6471 74.9183 37.8748 75.0937 36.8915 76.2984C32.091 82.1729 30.3175 88.0316 31.761 93.2383C32.1763 94.7363 33.7262 95.6124 35.2231 95.1974C36.7199 94.7824 37.5976 93.2338 37.182 91.735C36.0014 87.4764 38.7412 82.9257 41.2471 79.8568C42.2306 78.6546 42.0513 76.8834 40.8482 75.8996Z" fill="#A6C1CA"/>
<path d="M112.006 44.1328C109.68 44.3386 107.3 44.6198 104.928 44.9635C103.389 45.1989 102.326 46.6165 102.548 48.1518C102.772 49.6892 104.199 50.7557 105.736 50.5318C108.006 50.2018 110.284 49.9351 112.505 49.7354C112.679 49.7207 112.849 49.6883 113.01 49.6436C114.293 49.2879 115.18 48.0583 115.057 46.6848C114.92 45.1375 113.553 43.9944 112.006 44.1328Z" fill="#A6C1CA"/>
<path d="M147.782 48.7708C146.42 48.0253 144.708 48.5285 143.966 49.8917C143.221 51.2556 143.723 52.963 145.087 53.7081C148.324 55.4753 150.32 57.6495 151.02 60.1751C151.435 61.6731 152.985 62.5491 154.482 62.1341C155.979 61.7192 156.856 60.1705 156.441 58.6721C155.319 54.6256 152.405 51.2942 147.782 48.7708Z" fill="#A6C1CA"/>
<path d="M34.7235 48.6357L31.3313 49.5762C29.8345 49.9911 28.9568 51.5398 29.3722 53.0382L39.8923 90.984C40.3076 92.482 41.8575 93.358 43.3543 92.9431C44.8511 92.5281 45.7288 90.9794 45.3134 89.481L35.5447 54.2454L36.2264 54.0564C37.7232 53.6414 38.6009 52.0928 38.1855 50.5944C37.77 49.096 36.2204 48.2207 34.7235 48.6357Z" fill="#A6C1CA"/>
<path d="M69.9545 74.1041L47.2997 35.6374C46.5108 34.2968 44.791 33.8445 43.4497 34.6414L31.3322 41.7778C30.6883 42.1555 30.223 42.775 30.0358 43.4968C29.8497 44.2184 29.9576 44.9867 30.3364 45.6282L60.1658 96.2779C60.8258 97.4002 62.141 97.8937 63.3388 97.5616C63.5699 97.4976 63.7989 97.4029 64.0156 97.2731C65.3553 96.4857 65.8002 94.7607 65.0116 93.4231L36.6097 45.196L43.8814 40.9144L65.1084 76.9581C65.8962 78.299 67.6179 78.7478 68.9585 77.9541C70.2979 77.1672 70.7426 75.4419 69.9545 74.1041Z" fill="#A6C1CA"/>
<path d="M70.1858 47.5604L60.6899 50.193C59.1931 50.608 58.3154 52.1567 58.7308 53.6551L71.5984 100.068C72.0138 101.566 73.5637 102.442 75.0605 102.028C76.5573 101.613 77.435 100.064 77.0196 98.5655L64.9033 54.8623L71.689 52.981C73.1859 52.566 74.0635 51.0174 73.6481 49.519C73.2327 48.0206 71.6826 47.1454 70.1858 47.5604Z" fill="#A6C1CA"/>
<path d="M82.078 32.5883L68.5256 36.3455C67.0288 36.7605 66.1511 38.3092 66.5665 39.8076L83.4475 100.697C83.8005 101.97 84.9928 102.826 86.311 102.753C91.1712 102.489 96.0662 101.679 100.864 100.349C102.36 99.9341 103.238 98.3855 102.823 96.8871L85.5396 34.5475C85.1242 33.0491 83.5748 32.1733 82.078 32.5883ZM96.6344 95.6214C93.8527 96.2613 91.0501 96.7134 88.2529 96.9732L72.739 41.0148L80.8703 38.7605L96.6344 95.6214Z" fill="#A6C1CA"/>
<path d="M96.8377 22.659L83.2853 26.4162C81.7885 26.8312 80.9108 28.3798 81.3262 29.8782L97.8593 89.5129C98.2746 91.0109 99.8245 91.8869 101.321 91.4719C102.818 91.057 103.696 89.5083 103.28 88.0099L87.4987 31.0855L95.63 28.8312L104.892 62.2377C105.307 63.7357 106.857 64.6117 108.354 64.1967C109.85 63.7818 110.728 62.2331 110.313 60.7347L100.3 24.6177C99.8839 23.1198 98.3345 22.244 96.8377 22.659Z" fill="#A6C1CA"/>
<path d="M80.3816 97.1567C79.3496 97.1063 78.3417 97.027 77.3531 96.9107C75.8054 96.7212 74.4127 97.8311 74.2322 99.3746C74.188 99.7486 74.2191 100.114 74.3138 100.455C74.6114 101.524 75.5281 102.359 76.6981 102.497C77.8081 102.628 78.9441 102.72 80.1022 102.776C80.4106 102.793 80.7081 102.756 80.99 102.677C82.1263 102.362 82.986 101.349 83.0476 100.106C83.1259 98.5563 81.9319 97.2369 80.3816 97.1567Z" fill="#A6C1CA"/>
<path d="M97.7349 95.327C91.8714 96.7965 85.8873 97.4286 80.4274 97.1615C78.8786 97.0868 77.556 98.2795 77.4803 99.8311C77.4036 101.383 78.5984 102.703 80.1491 102.78C86.2231 103.083 92.6009 102.412 99.1002 100.787C99.1244 100.78 99.147 100.774 99.1705 100.767C100.636 100.361 101.517 98.8566 101.145 97.3748C100.769 95.866 99.2416 94.9524 97.7349 95.327Z" fill="#A6C1CA"/>
<path d="M118.195 89.5075L116.562 87.2181C116.248 87.4278 115.937 87.6392 115.613 87.8427C115.612 87.843 115.612 87.843 115.611 87.8435C115.611 87.8435 115.609 87.8438 115.608 87.8442C114.294 88.6725 113.9 90.4097 114.727 91.7221C115.406 92.7999 116.692 93.2583 117.858 92.9349C118.117 92.8634 118.369 92.7533 118.607 92.6048C118.976 92.3721 119.328 92.1341 119.683 91.8964C119.691 91.891 119.698 91.8862 119.705 91.8816L118.195 89.5075Z" fill="#A6C1CA"/>
<path d="M125.643 83.3433L123.416 81.6037L122.935 82.1016C122.185 82.8422 121.941 83.9052 122.206 84.8545C122.33 85.3015 122.567 85.7233 122.917 86.0765C123.661 86.8283 124.721 87.0703 125.669 86.8073C126.118 86.683 126.541 86.446 126.895 86.0938L127.497 85.4736L125.643 83.3433Z" fill="#A6C1CA"/>
<path d="M122.957 86.003C122.013 84.7737 120.255 84.5318 119.02 85.4753L118.02 86.2113C116.766 87.1259 116.49 88.8873 117.405 90.1413C118.115 91.1163 119.334 91.4994 120.429 91.1956C120.747 91.1077 121.053 90.9629 121.336 90.7596L121.566 90.5903C121.862 90.3739 122.156 90.1611 122.442 89.9393C123.669 88.995 123.9 87.2324 122.957 86.003Z" fill="#A6C1CA"/>
<path d="M125.164 83.998C124.145 82.824 122.368 82.701 121.197 83.7208L120.471 84.3183C119.589 85.0473 119.266 86.2034 119.551 87.2385C119.654 87.6093 119.835 87.9638 120.094 88.2765C120.823 89.1603 121.979 89.4841 123.015 89.1969C123.384 89.0945 123.74 88.9156 124.055 88.6556L124.888 87.9659C125.734 87.2302 126.033 86.1005 125.752 85.09C125.644 84.698 125.449 84.3244 125.164 83.998Z" fill="#A6C1CA"/>
<path d="M66.2661 93.7674C66.2601 93.764 66.2545 93.7595 66.2476 93.7559C66.244 93.7539 66.2405 93.7519 66.2373 93.7498C66.0245 93.6408 65.812 93.5312 65.6033 93.4215C65.356 93.2899 65.1127 93.1526 64.8797 93.012C64.8777 93.0095 64.8777 93.0095 64.8761 93.01C64.8741 93.0075 64.8726 93.008 64.8726 93.008C63.5476 92.1923 61.8179 92.6094 61.0053 93.9348C60.1934 95.2565 60.6061 96.987 61.929 97.7998C61.9309 97.8023 61.9325 97.8019 61.9325 97.8019C61.9345 97.8043 61.9345 97.8043 61.9361 97.8039C62.1644 97.9458 62.4 98.0801 62.6438 98.2148C62.984 98.4022 63.335 98.5841 63.6853 98.7636C63.6873 98.7661 63.6889 98.7656 63.6901 98.7653C63.6908 98.7681 63.692 98.7677 63.6936 98.7673C64.3442 99.103 65.0619 99.158 65.7118 98.9778C66.4424 98.7752 67.0884 98.2772 67.4636 97.5485C68.1688 96.1751 67.6246 94.4879 66.2661 93.7674Z" fill="#A6C1CA"/>
<path d="M77.1904 96.89C77.1892 96.8903 77.1892 96.8903 77.1892 96.8903C77.1856 96.8883 77.1845 96.8887 77.1817 96.8894C76.2495 96.775 75.3353 96.6403 74.4476 96.4704C72.9154 96.1764 71.4482 97.1792 71.1586 98.7072C71.0746 99.1444 71.0981 99.5791 71.2097 99.9817C71.4856 100.98 72.307 101.79 73.3944 101.996C74.4071 102.188 75.4452 102.345 76.5078 102.472C76.8853 102.518 77.2544 102.488 77.5986 102.392C78.6623 102.097 79.4973 101.187 79.6405 100.022C79.8293 98.4817 78.7318 97.0784 77.1904 96.89Z" fill="#A6C1CA"/>
<path d="M68.6461 94.8354C68.0667 94.6116 67.4905 94.3806 66.9476 94.1237C66.9384 94.1211 66.9298 94.1149 66.9203 94.1116C65.5158 93.4466 63.838 94.037 63.1707 95.4393C62.8684 96.0763 62.8257 96.7688 62.998 97.3966C63.2074 98.1564 63.733 98.8231 64.4997 99.189C65.1746 99.512 65.89 99.801 66.6163 100.081C67.202 100.306 67.8167 100.324 68.3781 100.169C69.2063 99.939 69.9188 99.3335 70.2524 98.4719C70.8128 97.0219 70.0932 95.3945 68.6461 94.8354Z" fill="#A6C1CA"/>
<path d="M71.287 95.7232C70.9429 95.6215 70.6017 95.5229 70.2663 95.4187C69.9022 95.3038 69.545 95.186 69.1951 95.0603C67.7365 94.5292 66.1247 95.2898 65.596 96.7447C65.0669 98.2027 65.8193 99.8155 67.276 100.346C67.6546 100.486 68.0432 100.615 68.4365 100.74C68.8642 100.874 69.298 101.005 69.7372 101.129C70.2522 101.276 70.7747 101.269 71.2551 101.135C72.1663 100.883 72.9311 100.174 73.2104 99.2004C73.6372 97.7079 72.7767 96.1508 71.287 95.7232Z" fill="#A6C1CA"/>
<path d="M74.1319 96.4048C73.3072 96.2431 72.4986 96.0624 71.7192 95.851C70.2186 95.4521 68.6759 96.3385 68.2713 97.8355C68.1346 98.3403 68.1455 98.8482 68.2753 99.3163C68.5328 100.245 69.2595 101.016 70.2548 101.284C71.1537 101.525 72.0872 101.734 73.0385 101.924C73.483 102.011 73.9241 101.989 74.3334 101.876C75.326 101.6 76.1304 100.79 76.3446 99.7103C76.4318 99.2646 76.4095 98.8231 76.2965 98.4154C76.0217 97.4227 75.21 96.6186 74.1319 96.4048Z" fill="#A6C1CA"/>
<path d="M64.1906 92.536L63.9443 92.3709C63.7812 92.2622 63.6189 92.1533 63.4614 92.043C63.3365 91.9549 63.2125 91.864 63.094 91.7712C61.8736 90.8098 60.1056 91.0178 59.1446 92.2334C58.1827 93.4522 58.3876 95.2197 59.6059 96.1843C59.7396 96.2904 59.879 96.3938 60.0307 96.503C60.323 96.7153 60.6496 96.9356 61.0447 97.1997C61.7546 97.678 62.6017 97.7882 63.3668 97.5761C63.989 97.4036 64.5557 97.016 64.9455 96.4402C65.8132 95.153 65.4761 93.4084 64.1906 92.536Z" fill="#A6C1CA"/>
<path d="M129.82 32.8771L123.609 31.2699C122.103 30.8783 120.569 31.7854 120.182 33.2892C119.794 34.7936 120.696 36.3278 122.201 36.7172L125.688 37.6196L112.177 89.8447C109.112 91.4839 105.833 92.8775 102.384 94.0132L115.13 44.7458C115.517 43.2415 114.615 41.7072 113.11 41.3179C111.601 40.927 110.072 41.8356 109.682 43.3371L95.7095 97.3486C95.4616 98.3096 95.7378 99.3306 96.4373 100.034C97.1381 100.74 98.1569 101.023 99.1204 100.781L99.7182 100.635C100.099 100.546 100.48 100.455 100.863 100.349C106.267 98.8507 111.35 96.7743 115.971 94.1791C116.64 93.8055 117.126 93.1743 117.318 92.4315L131.839 36.3051C132.227 34.8012 131.324 33.2664 129.82 32.8771Z" fill="#A6C1CA"/>
<path d="M62.425 91.164L62.1414 90.9121C61.9605 90.7515 61.7748 90.5922 61.6106 90.421C60.5384 89.2987 58.7599 89.2527 57.634 90.3318C56.8579 91.0716 56.5982 92.1522 56.8684 93.1205C56.988 93.5521 57.2126 93.9597 57.5442 94.3073C57.8175 94.5932 58.1195 94.8635 58.4244 95.1322L58.6624 95.3428C59.404 96.0128 60.4027 96.2118 61.2985 95.9635C61.7959 95.8256 62.2625 95.5483 62.633 95.1373C63.301 94.3933 63.5012 93.3942 63.2532 92.4997C63.1148 92.0019 62.8368 91.5343 62.425 91.164Z" fill="#A6C1CA"/>
<path d="M132.116 64.6831C130.561 64.858 129.458 66.2439 129.627 67.7874L129.662 68.2742C129.674 68.4703 129.707 68.6604 129.757 68.8406C130.101 70.0845 131.286 70.9164 132.638 70.8319C132.829 70.8192 133.013 70.7877 133.191 70.7385C134.457 70.3876 135.349 69.1457 135.267 67.785C135.254 67.5806 135.242 67.3759 135.219 67.1714C135.202 67.0171 135.172 66.8684 135.132 66.7227C134.771 65.4182 133.506 64.5311 132.116 64.6831Z" fill="#A6C1CA"/>
<path d="M60.979 89.6525L60.6886 89.3054C60.594 89.1952 60.4947 89.0855 60.412 88.9661C59.5234 87.6903 57.7647 87.3656 56.4961 88.2646C55.4886 88.9654 55.0801 90.2049 55.3904 91.3241C55.4733 91.6231 55.6077 91.9103 55.7928 92.1788C55.9814 92.4489 56.1942 92.7059 56.4112 92.9595L56.6065 93.1906C57.3329 94.0897 58.4985 94.4215 59.5451 94.1314C59.9048 94.0317 60.2519 93.8589 60.5614 93.6072C61.4609 92.882 61.794 91.7148 61.5034 90.6666C61.403 90.3075 61.2306 89.9619 60.979 89.6525Z" fill="#A6C1CA"/>
<path d="M129.218 79.123C128.012 78.1459 126.243 78.3345 125.261 79.5384L124.659 80.2496C123.649 81.425 123.779 83.1957 124.951 84.2102C125.691 84.8517 126.668 85.0365 127.546 84.7932C128.058 84.6512 128.537 84.3615 128.913 83.9332C129.158 83.6515 129.402 83.367 129.635 83.0801C130.229 82.3457 130.392 81.405 130.159 80.5605C130.009 80.0132 129.692 79.5076 129.218 79.123Z" fill="#A6C1CA"/>
<path d="M59.8317 87.9666L59.4905 87.3942C58.8228 85.9944 57.1545 85.4192 55.7461 86.0667C54.4925 86.6622 53.8834 88.0628 54.2415 89.3544C54.2847 89.5104 54.3423 89.6659 54.4141 89.8166C54.5305 90.0609 54.6681 90.2964 54.918 90.703C55.5632 91.8611 56.9022 92.3852 58.1239 92.0465C58.3351 91.9879 58.5432 91.9041 58.7436 91.7913C59.9006 91.1481 60.4255 89.8059 60.0855 88.5859C60.027 88.3746 59.944 88.1663 59.8317 87.9666Z" fill="#A6C1CA"/>
<path d="M130.536 76.5936L127.94 75.4979L127.721 75.9263C127.352 76.5956 127.283 77.35 127.473 78.0333C127.668 78.7373 128.134 79.366 128.826 79.7472C129.497 80.1171 130.251 80.1845 130.935 79.9949C131.639 79.7997 132.266 79.3325 132.648 78.6423C132.768 78.4265 132.876 78.2082 133.053 77.8484L130.536 76.5936Z" fill="#A6C1CA"/>
<path d="M135.195 68.8777C134.879 67.7425 133.864 66.884 132.623 66.8232C131.063 66.7456 129.749 67.942 129.674 69.4932C129.673 69.505 129.652 69.981 129.651 69.9901C129.618 70.3411 129.651 70.6797 129.74 71.0001C130.043 72.0931 130.997 72.9406 132.195 73.0498C132.544 73.0812 132.884 73.0469 133.203 72.9584C134.297 72.6552 135.142 71.7021 135.253 70.5059C135.271 70.3132 135.28 70.1227 135.287 69.9326L132.484 69.6318L135.293 69.771C135.309 69.4618 135.273 69.1608 135.195 68.8777Z" fill="#A6C1CA"/>
<path d="M130.527 77.124C129.289 76.2296 127.482 76.6033 126.559 77.8194C126.538 77.8458 126.372 78.0714 126.351 78.0997C125.868 78.7862 125.757 79.5895 125.96 80.3229C126.127 80.9259 126.505 81.4821 127.064 81.889C127.765 82.4019 128.648 82.5133 129.451 82.2905C130.067 82.1199 130.634 81.7518 131.039 81.2236L131.292 80.8737C131.754 80.1956 131.856 79.4236 131.66 78.7109C131.491 78.0999 131.101 77.5351 130.527 77.124Z" fill="#A6C1CA"/>
<path d="M132.448 71.788C130.987 71.2585 129.371 72.0084 128.844 73.4716L128.609 74.0528C128.368 74.6413 128.344 75.255 128.5 75.816C128.723 76.6204 129.317 77.3138 130.162 77.6639C130.748 77.9056 131.373 77.924 131.948 77.7646C132.781 77.5336 133.508 76.9278 133.861 76.0798C133.955 75.8485 134.049 75.6227 134.132 75.3916C134.338 74.8212 134.35 74.2283 134.2 73.6855C133.966 72.8355 133.339 72.111 132.448 71.788Z" fill="#A6C1CA"/>
<path d="M132.732 69.6772C131.23 69.3326 129.706 70.3532 129.347 71.8524C129.234 72.326 129.248 72.7949 129.37 73.2289C129.624 74.1477 130.356 74.9051 131.351 75.1765C131.846 75.3129 132.349 75.3018 132.815 75.1725C133.726 74.92 134.495 74.2163 134.792 73.2555C134.815 73.1776 134.863 73.0084 134.879 72.929C134.977 72.4804 134.959 72.0407 134.847 71.6357C134.58 70.6813 133.787 69.9174 132.732 69.6772Z" fill="#A6C1CA"/>
<path d="M133.1 45.4838L115.846 16.1858C115.469 15.5431 114.849 15.0766 114.127 14.8894C113.407 14.7073 112.641 14.8171 111.996 15.19L99.8786 22.3264C99.2346 22.7042 98.7693 23.3236 98.5821 24.0454C98.396 24.767 98.5039 25.5353 98.8827 26.1768L121.479 64.5456C122.139 65.6679 123.454 66.1614 124.652 65.8293C124.884 65.765 125.113 65.6703 125.329 65.5412C126.669 64.7538 127.114 63.0288 126.325 61.6911L105.156 25.7451L112.427 21.4635L128.254 48.3383C129.042 49.676 130.759 50.1263 132.104 49.3342C133.444 48.5465 133.888 46.8216 133.1 45.4838Z" fill="#A6C1CA"/>
<path d="M155.431 29.383C155.134 28.7014 154.577 28.1635 153.882 27.8884L140.798 22.7341C139.35 22.1637 137.719 22.8775 137.15 24.3213L110.738 91.3525C110.306 92.4471 110.604 93.6955 111.482 94.4809C112.205 95.1269 113.198 95.3447 114.107 95.0927C114.3 95.0392 114.49 94.9637 114.674 94.8674C128.41 87.5825 136.175 77.0948 135.269 67.4611L140.706 65.9539C141.557 65.7179 142.248 65.0958 142.571 64.2737L155.47 31.5358C155.741 30.8418 155.729 30.0671 155.431 29.383ZM137.85 60.9066L131.295 62.7239C129.798 63.1389 128.92 64.6875 129.336 66.1859C130.995 72.1704 127.012 79.3689 119.135 85.3835L141.353 28.9982L149.204 32.0916L137.85 60.9066Z" fill="#A6C1CA"/>
<path d="M155.205 57.028C154.539 56.6169 153.733 56.5045 152.979 56.7133L131.296 62.7248C129.799 63.1397 128.922 64.6884 129.337 66.1868C132.188 76.47 118.462 89.6332 99.3616 94.9286C80.261 100.224 61.7169 96.0078 58.8659 85.7242C58.4506 84.2262 56.9007 83.3501 55.4038 83.7651L33.721 89.7764C32.9674 89.9854 32.3346 90.4973 31.9757 91.192C31.6147 91.8855 31.5609 92.6986 31.8232 93.4348L70.7633 202.308C71.2603 203.695 72.7429 204.464 74.1635 204.07L177.159 175.516C178.578 175.122 179.455 173.699 179.168 172.254L156.49 58.8723C156.336 58.1048 155.871 57.4355 155.205 57.028ZM173.136 170.793L75.1794 197.951L38.1379 94.3888L54.433 89.8712C60.0397 101.625 79.5951 106.245 100.864 100.349C122.133 94.4521 136.517 80.4224 135.272 67.4595L151.566 62.9421L173.136 170.793Z" fill="#A6C1CA"/>
<path d="M106.124 119.322C92.6736 123.051 84.7636 137.027 88.493 150.478C92.2224 163.93 106.199 171.838 119.65 168.109C133.1 164.38 141.01 150.405 137.281 136.953C133.551 123.501 119.574 115.593 106.124 119.322ZM118.147 162.689C107.685 165.589 96.814 159.437 93.9137 148.976C91.0135 138.515 97.1649 127.643 107.627 124.742C118.089 121.842 128.96 127.994 131.86 138.455C134.76 148.917 128.608 159.788 118.147 162.689Z" fill="#A6C1CA"/>
</g>
<defs>
<clipPath id="clip0">
<rect width="172" height="172" fill="white" transform="translate(0.150024 46.1019) rotate(-15.4955)"/>
</clipPath>
</defs>
</svg>
