<svg width="153" height="153" viewBox="0 0 153 153" fill="none" xmlns="http://www.w3.org/2000/svg">
<g clip-path="url(#clip0)">
<path d="M1.84196 152.1C2.65809 152.895 3.85884 153.155 4.92899 152.764L127.955 108.016C132.256 110.608 137.693 111.187 142.663 109.092C150.914 105.612 154.796 96.0694 151.317 87.8183C143.113 68.3629 131.335 50.9761 116.311 36.1411C101.286 21.306 83.7515 9.74998 64.1933 1.79366C62.1621 0.967569 60.0599 0.58369 57.9925 0.596816C51.6172 0.637589 45.5794 4.45373 43.0319 10.7172C41.3177 14.9313 41.5109 19.4539 43.2007 23.3276L1.09928 149.031C0.737413 150.112 1.02584 151.304 1.84196 152.1ZM109.287 108.488L96.2487 113.23C94.7041 111.605 93.942 109.359 94.2271 107.082C94.4786 105.076 95.4956 103.288 97.0912 102.047C98.6868 100.807 100.669 100.262 102.676 100.513C104.681 100.764 106.469 101.781 107.71 103.377C108.853 104.847 109.404 106.646 109.287 108.488ZM48.5319 12.9549C50.6722 7.69302 56.6952 5.15356 61.9559 7.29452C100.067 22.7976 129.859 52.2146 145.846 90.1256C146.915 92.661 146.933 95.4608 145.896 98.0099C144.859 100.559 142.892 102.551 140.356 103.62C137.821 104.689 135.021 104.707 132.472 103.67C129.923 102.633 127.931 100.666 126.862 98.1307C120.019 81.903 110.196 67.401 97.6634 55.0271C85.1313 42.6531 70.5058 33.0145 54.1925 26.3783C48.9307 24.2382 46.3912 18.2161 48.5319 12.9549ZM22.7287 103.147C22.9974 103.152 23.2665 103.166 23.5351 103.199C25.5403 103.45 27.3281 104.467 28.5685 106.063C29.8092 107.658 30.3541 109.642 30.1032 111.647C29.5847 115.787 25.7959 118.733 21.6544 118.216C20.3768 118.056 19.1752 117.568 18.1483 116.821L22.7287 103.147ZM16.2116 122.606C17.663 123.385 19.2555 123.899 20.9169 124.107C28.3065 125.035 35.0696 119.774 35.9947 112.385C36.4428 108.806 35.4703 105.266 33.2562 102.418C31.1235 99.6752 28.084 97.8936 24.6648 97.3661L30.4558 80.075L37.2747 85.2389C38.5816 86.2282 40.4441 85.9717 41.4336 84.6645C42.4234 83.3573 42.1661 81.4954 40.8592 80.5056L32.4452 74.1339L47.5066 29.1633C48.8009 30.2743 50.2892 31.2013 51.9539 31.8786C83.4988 44.711 108.158 69.059 121.389 100.438C121.849 101.529 122.419 102.541 123.074 103.473L115.142 106.358C114.849 103.965 113.915 101.686 112.397 99.7328C110.183 96.8849 106.992 95.0699 103.413 94.622C102.813 94.5469 102.216 94.5115 101.622 94.5152C98.6683 94.534 95.8174 95.517 93.4466 97.3599C90.5984 99.5743 88.7837 102.765 88.3353 106.344C87.9332 109.558 88.7027 112.733 90.4018 115.357L53.5825 128.749L52.1625 125.381C51.6814 124.241 50.5718 123.557 49.4069 123.565C49.0284 123.567 48.6441 123.643 48.2734 123.799C46.7628 124.436 46.0545 126.177 46.6914 127.688L47.9953 130.781L8.68442 145.079L16.2116 122.606Z" fill="#A6C1CA"/>
<path d="M120.394 72.5578C120.403 72.5717 120.428 72.6093 120.438 72.6228C121.356 73.9806 123.198 74.3349 124.556 73.4182C125.912 72.5029 126.27 70.6603 125.36 69.3019C124.786 68.4321 123.831 67.9617 122.86 67.9678C122.31 67.9713 121.755 68.1274 121.261 68.4497C119.887 69.3452 119.499 71.1845 120.394 72.5578Z" fill="#A6C1CA"/>
<path d="M124.956 79.9043C127.882 84.9582 130.516 90.2503 132.786 95.6329C133.423 97.1441 135.165 97.8515 136.675 97.2146C138.186 96.5777 138.894 94.8364 138.256 93.3258C135.89 87.7146 133.144 82.1982 130.095 76.9301C129.541 75.9735 128.535 75.4414 127.504 75.4479C127.005 75.4511 126.501 75.5802 126.039 75.8476C124.62 76.6692 124.135 78.4853 124.956 79.9043Z" fill="#A6C1CA"/>
<path d="M59.8207 114.591C60.4096 114.665 61.0075 114.701 61.5976 114.697C68.3416 114.654 74.0599 109.57 74.8985 102.87C75.8236 95.4809 70.5653 88.7169 63.1766 87.7918C62.5878 87.7178 61.9899 87.6824 61.3997 87.6861C54.6561 87.729 48.9378 92.8137 48.0989 99.5143C47.1741 106.903 52.4323 113.666 59.8207 114.591ZM53.9901 100.252C54.4603 96.4971 57.6619 93.6478 61.4374 93.6238C61.7693 93.6217 62.1064 93.6415 62.4389 93.6834C66.5792 94.2018 69.5252 97.9918 69.007 102.132C68.5368 105.887 65.3355 108.736 61.5599 108.759C61.228 108.762 60.891 108.742 60.5585 108.7C56.4185 108.181 53.4719 104.391 53.9901 100.252Z" fill="#A6C1CA"/>
<path d="M60.3588 77.66C60.9479 77.734 61.5455 77.7694 62.1357 77.7657C68.8796 77.7228 74.5979 72.6381 75.4365 65.9378C75.8849 62.3584 74.9125 58.8193 72.6983 55.9711C70.4845 53.1232 67.294 51.3082 63.7147 50.8598C63.1261 50.786 62.5285 50.7509 61.9386 50.7546C55.1947 50.7975 49.4761 55.8822 48.6372 62.5828C47.7118 69.9709 52.9704 76.7343 60.3588 77.66ZM54.5281 63.32C54.9983 59.5653 58.2002 56.716 61.9757 56.692C62.3073 56.6899 62.6444 56.71 62.9766 56.7516C64.9821 57.0031 66.7699 58.0201 68.0106 59.6157C69.2513 61.2113 69.7962 63.1945 69.545 65.2004C69.0748 68.9547 65.8732 71.804 62.098 71.828C61.7661 71.8301 61.429 71.8103 61.0965 71.7684C56.9568 71.25 54.0102 67.46 54.5281 63.32Z" fill="#A6C1CA"/>
<path d="M80.0171 89.8343L89.1493 90.9778C90.7754 91.1833 92.2602 90.028 92.4639 88.4012C92.6679 86.7742 91.514 85.2903 89.8873 85.0866L80.7551 83.9431C80.6235 83.9264 80.4929 83.919 80.3637 83.9198C78.8969 83.9291 77.6279 85.0246 77.4408 86.5197C77.2365 88.1464 78.3901 89.6306 80.0171 89.8343Z" fill="#A6C1CA"/>
<path d="M84.5047 67.897L85.3493 74.0145C85.5736 75.6388 87.0718 76.774 88.6961 76.5491C90.3204 76.3247 91.455 74.8266 91.2307 73.2023L90.3858 67.0848C90.1798 65.5919 88.8972 64.5126 87.4301 64.5219C87.301 64.5227 87.1704 64.5318 87.0393 64.5502C85.415 64.7746 84.2803 66.2727 84.5047 67.897Z" fill="#A6C1CA"/>
</g>
<defs>
<clipPath id="clip0">
<rect width="152" height="152" fill="white" transform="translate(152.962 151.997) rotate(179.636)"/>
</clipPath>
</defs>
</svg>
