<svg width="204" height="204" viewBox="0 0 204 204" fill="none" xmlns="http://www.w3.org/2000/svg">
<g clip-path="url(#clip0)">
<path d="M152.733 88.8333L149.659 88.0746L148.415 74.2682C148.321 73.2223 147.573 72.3514 146.553 72.0998L118.679 65.2218L123.466 45.825L154.727 43.0087C156.081 42.8867 157.08 41.6904 156.957 40.3367L156.074 30.5327C156.016 29.8826 155.701 29.2824 155.2 28.8642C154.699 28.4461 154.053 28.2441 153.402 28.3025L120.393 31.2764C115.165 31.7472 110.808 35.4874 109.551 40.5836L104.344 61.6844L76.4699 54.8063C75.4505 54.5548 74.3833 54.9778 73.8134 55.8599L66.2897 67.5028L63.2152 66.7441C59.263 65.7689 55.2539 68.1911 54.2787 72.1432C53.3035 76.0954 55.7256 80.1045 59.6778 81.0798L62.3076 81.7287L49.7643 173.363C49.5935 174.61 50.3912 175.785 51.6129 176.086L112.139 191.021C113.361 191.323 114.614 190.654 115.042 189.471L146.566 102.52L149.196 103.169C153.148 104.144 157.157 101.722 158.132 97.7698C159.108 93.8173 156.685 89.8085 152.733 88.8333ZM114.329 41.7627C115.084 38.7051 117.698 36.4612 120.835 36.1784L151.393 33.4251L151.835 38.3272L121.276 41.0804C120.231 41.1746 119.359 41.9221 119.108 42.9419L113.901 64.0426L109.122 62.8635L114.329 41.7627ZM111.17 185.713L54.9408 171.838L67.1129 82.9144L141.76 101.334L111.17 185.713ZM150.375 98.3904L60.8569 76.3012C59.5393 75.9761 58.7321 74.64 59.0572 73.3224C59.3824 72.0048 60.7185 71.1975 62.0361 71.5227L66.8146 72.7018C67.834 72.9534 68.9013 72.5303 69.4711 71.6482L76.9945 60.0052L143.67 76.4579L144.604 86.8274L78.102 70.4175C76.7821 70.0918 75.4487 70.8977 75.1231 72.2172C74.7975 73.5367 75.603 74.8704 76.9228 75.1961L146.72 92.4189C146.756 92.4289 146.794 92.4382 146.831 92.4464L151.554 93.6118C152.872 93.9369 153.679 95.273 153.354 96.5907C153.029 97.9083 151.693 98.7155 150.375 98.3904V98.3904Z" fill="#A6C1CA"/>
</g>
<defs>
<clipPath id="clip0">
<rect width="168" height="168" fill="white" transform="translate(40.5701 0.322235) rotate(13.8612)"/>
</clipPath>
</defs>
</svg>
